<svg id="Layer_3" enable-background="new 0 0 64 64" height="512" viewBox="0 0 64 64" width="512" xmlns="http://www.w3.org/2000/svg"><g><path d="m58 37v-3.076c0-3.247.681-6.457 2-9.424 1.319-2.967 2-6.178 2-9.424v-1.076c0-6.627-5.373-12-12-12-6.627 0-12 5.373-12 12l-4 8h4v9h6v6" fill="#f2b9a1"/><path d="m44 3.618c1.766-1.023 3.812-1.618 6-1.618 6.627 0 12 5.373 12 12v1.076c0 3.247-.681 6.457-2 9.424-.363.816-.672 1.652-.938 2.5h-13.062c-1.105 0-2-.895-2-2z" fill="#fbe1ca"/><path d="m58 16c.552 0 1-.448 1-1v-5c0-.552-.448-1-1-1-.552 0-1 .448-1 1v5c0 .552.448 1 1 1z" fill="#f2b9a1"/><path d="m47 33h8c.552 0 1 .448 1 1 0 .552-.448 1-1 1h-8c-.552 0-1-.448-1-1 0-.552.448-1 1-1z" fill="#fbe1ca"/><path d="m6 62v-3.076c0-3.247-.681-6.457-2-9.424-1.319-2.967-2-6.178-2-9.424v-1.076c0-6.627 5.373-12 12-12 6.627 0 12 5.373 12 12l4 8h-4v9h-6v6" fill="#f2b9a1"/><path d="m20 28.618c-1.766-1.023-3.812-1.618-6-1.618-6.627 0-12 5.373-12 12v1.076c0 3.247.681 6.457 2 9.424.363.816.672 1.652.938 2.5h13.062c1.105 0 2-.895 2-2z" fill="#fbe1ca"/><path d="m6 41c-.552 0-1-.448-1-1v-5c0-.552.448-1 1-1 .552 0 1 .448 1 1v5c0 .552-.448 1-1 1z" fill="#f2b9a1"/><path d="m17 58h-8c-.552 0-1 .448-1 1 0 .552.448 1 1 1h8c.552 0 1-.448 1-1 0-.552-.448-1-1-1z" fill="#fbe1ca"/><path d="m42 56-4 4v-4h-2c-1.105 0-2-.895-2-2v-8c0-1.105.895-2 2-2h24c1.105 0 2 .895 2 2v8c0 1.105-.895 2-2 2z" fill="#ba4753"/><path d="m36 44c-.366 0-.705.106-1 .277v7.723c0 1.105.895 2 2 2h19c1.105 0 2-.895 2-2v-8z" fill="#e1656e"/><g><path d="m37 47h2v2h-2z" fill="#f29b99"/></g><g><path d="m41 47h18v2h-18z" fill="#f29b99"/></g><g><path d="m57 51h2v2h-2z" fill="#f29b99"/></g><g><path d="m37 51h18v2h-18z" fill="#f29b99"/></g><g><path d="m20 46h-12c-.553 0-1-.447-1-1v-12c0-.552.447-1 1-1h12c.553 0 1 .448 1 1v4h-2v-3h-10v10h10v-5h2v6c0 .553-.447 1-1 1z" fill="#ba4753"/></g><g><path d="m17 43h-6c-.553 0-1-.447-1-1v-2h2v1h4v-4h-4v1h-2v-2c0-.553.447-1 1-1h6c.553 0 1 .447 1 1v6c0 .553-.447 1-1 1z" fill="#e1656e"/></g><g><path d="m56 21h-12c-.553 0-1-.448-1-1v-12c0-.552.447-1 1-1h12c.553 0 1 .448 1 1v4h-2v-3h-10v10h10v-5h2v6c0 .552-.447 1-1 1z" fill="#546ded"/></g><g><path d="m53 18h-6c-.553 0-1-.448-1-1v-2h2v1h4v-4h-4v1h-2v-2c0-.552.447-1 1-1h6c.553 0 1 .448 1 1v6c0 .552-.447 1-1 1z" fill="#7fa3f8"/></g><path d="m22 14 4 4v-4h2c1.105 0 2-.895 2-2v-8c0-1.105-.895-2-2-2h-24c-1.105 0-2 .895-2 2v8c0 1.105.895 2 2 2z" fill="#546ded"/><path d="m28 2c.366 0 .705.106 1 .277v7.723c0 1.105-.895 2-2 2h-19c-1.105 0-2-.895-2-2v-8z" fill="#7fa3f8"/><g><path d="m25 5h2v2h-2z" fill="#acc9fb"/></g><g><path d="m5 5h18v2h-18z" fill="#acc9fb"/></g><g><path d="m5 9h2v2h-2z" fill="#acc9fb"/></g><g><path d="m9 9h18v2h-18z" fill="#acc9fb"/></g><path d="m5 58.925v4.075h2v-4.075c0-3.408-.702-6.716-2.086-9.831-1.27-2.858-1.914-5.892-1.914-9.019v-1.075c0-6.065 4.935-11 11-11s11 4.935 11 11c0 .155.036.309.105.447l3.277 6.553h-2.382c-.553 0-1 .447-1 1v8h-8v2h2v6h2v-6h5c.553 0 1-.447 1-1v-8h3c.347 0 .668-.18.851-.475s.199-.663.044-.973l-3.896-7.793c-.13-7.057-5.911-12.759-12.999-12.759-7.168 0-13 5.832-13 13v1.075c0 3.408.702 6.716 2.086 9.831 1.27 2.858 1.914 5.892 1.914 9.019z"/><path d="m60 43h-24c-1.654 0-3 1.346-3 3v8c0 1.654 1.346 3 3 3h1v3c0 .404.243.77.617.924.124.052.254.076.383.076.26 0 .516-.102.707-.293l3.707-3.707h17.586c1.654 0 3-1.346 3-3v-8c0-1.654-1.346-3-3-3zm1 11c0 .552-.448 1-1 1h-18c-.266 0-.52.105-.707.293l-2.293 2.293v-1.586c0-.553-.447-1-1-1h-2c-.552 0-1-.448-1-1v-8c0-.552.448-1 1-1h24c.552 0 1 .448 1 1z"/><path d="m37 47h2v2h-2z"/><path d="m41 47h18v2h-18z"/><path d="m57 51h2v2h-2z"/><path d="m37 51h18v2h-18z"/><path d="m50 1c-7.088 0-12.869 5.702-12.998 12.76l-3.896 7.793c-.155.31-.139.678.044.973.182.294.503.474.85.474h3v8c0 .552.447 1 1 1h5v6h2v-6h2v-2h-8v-8c0-.552-.447-1-1-1h-2.382l3.276-6.553c.07-.138.106-.292.106-.447 0-6.065 4.935-11 11-11s11 4.935 11 11v1.076c0 3.126-.644 6.161-1.914 9.018-1.384 3.115-2.086 6.423-2.086 9.831v4.075h2v-4.075c0-3.126.644-6.161 1.914-9.019 1.384-3.115 2.086-6.423 2.086-9.83v-1.076c0-7.168-5.832-13-13-13z"/><path d="m4 15h17.586l3.707 3.707c.191.191.447.293.707.293.129 0 .259-.025.383-.076.374-.155.617-.52.617-.924v-3h1c1.654 0 3-1.346 3-3v-8c0-1.654-1.346-3-3-3h-24c-1.654 0-3 1.346-3 3v8c0 1.654 1.346 3 3 3zm-1-11c0-.551.448-1 1-1h24c.552 0 1 .449 1 1v8c0 .551-.448 1-1 1h-2c-.553 0-1 .448-1 1v1.586l-2.293-2.293c-.187-.188-.441-.293-.707-.293h-18c-.552 0-1-.449-1-1z"/><path d="m25 5h2v2h-2z"/><path d="m5 5h18v2h-18z"/><path d="m5 9h2v2h-2z"/><path d="m9 9h18v2h-18z"/><path d="m21 37v-4c0-.552-.447-1-1-1h-12c-.553 0-1 .448-1 1v12c0 .553.447 1 1 1h12c.553 0 1-.447 1-1v-6h-2v5h-10v-10h10v3z"/><path d="m10 40v2c0 .553.447 1 1 1h6c.553 0 1-.447 1-1v-6c0-.553-.447-1-1-1h-6c-.553 0-1 .447-1 1v2h2v-1h4v4h-4v-1z"/><path d="m57 12v-4c0-.552-.447-1-1-1h-12c-.553 0-1 .448-1 1v12c0 .552.447 1 1 1h12c.553 0 1-.448 1-1v-6h-2v5h-10v-10h10v3z"/><path d="m46 15v2c0 .552.447 1 1 1h6c.553 0 1-.448 1-1v-6c0-.552-.447-1-1-1h-6c-.553 0-1 .448-1 1v2h2v-1h4v4h-4v-1z"/></g></svg>